<?xml version="1.0" encoding="UTF-8" standalone="no"?>
<svg
   xmlns:dc="http://purl.org/dc/elements/1.1/"
   xmlns:cc="http://creativecommons.org/ns#"
   xmlns:rdf="http://www.w3.org/1999/02/22-rdf-syntax-ns#"
   xmlns:svg="http://www.w3.org/2000/svg"
   xmlns="http://www.w3.org/2000/svg"
   xmlns:sodipodi="http://sodipodi.sourceforge.net/DTD/sodipodi-0.dtd"
   xmlns:inkscape="http://www.inkscape.org/namespaces/inkscape"
   version="1.1"
   id="Layer_1"
   x="0px"
   y="0px"
   viewBox="0 0 512 512"
   style="enable-background:new 0 0 512 512;"
   xml:space="preserve"
   sodipodi:docname="btc-orange.svg"
   inkscape:version="1.0.2 (e86c870879, 2021-01-15)"
   inkscape:export-filename="C:\Users\Dominik\Documents\Python + JS\compartmental-model-simulator\src\btc-orange.png"
   inkscape:export-xdpi="299.92999"
   inkscape:export-ydpi="299.92999"><metadata
   id="metadata15"><rdf:RDF><cc:Work
       rdf:about=""><dc:format>image/svg+xml</dc:format><dc:type
         rdf:resource="http://purl.org/dc/dcmitype/StillImage" /><dc:title></dc:title></cc:Work></rdf:RDF></metadata><defs
   id="defs13" /><sodipodi:namedview
   pagecolor="#ffffff"
   bordercolor="#666666"
   borderopacity="1"
   objecttolerance="10"
   gridtolerance="10"
   guidetolerance="10"
   inkscape:pageopacity="0"
   inkscape:pageshadow="2"
   inkscape:window-width="1515"
   inkscape:window-height="1169"
   id="namedview11"
   showgrid="false"
   inkscape:zoom="0.984375"
   inkscape:cx="92.16779"
   inkscape:cy="201.36582"
   inkscape:window-x="878"
   inkscape:window-y="312"
   inkscape:window-maximized="0"
   inkscape:current-layer="Layer_1" />

<ellipse
   style="fill:#ffffff;fill-opacity:1"
   id="path854"
   cx="248.38097"
   cy="259.55557"
   rx="153.90475"
   ry="158.98413" /><g
   id="g8"
   style="fill:#f9931a;fill-opacity:1">
	<title
   id="title2">bitcoin</title>
	<g
   id="g6"
   style="fill:#f9931a;fill-opacity:1">
		<path
   d="M474.2,310.4c-30,120.6-152.1,193.9-272.6,163.9C81.1,444.5,7.7,322.1,37.8,201.7c30-120.6,152.1-194,272.5-164    C430.9,67.8,504.3,189.9,474.2,310.4L474.2,310.4z M355.2,223.9c4.5-29.8-18.3-45.9-49.5-56.8l10.1-40.4l-24.7-6.2l-9.8,39.6    c-6.5-1.7-13.2-3.2-19.9-4.7l9.8-39.9l-24.8-6.1l-10.1,40.6c-5.3-1.3-10.5-2.5-15.8-3.7l-34-8.5l-6.6,26.5c0,0,18.3,4.2,17.9,4.4    c10.1,2.6,11.9,9.1,11.6,14.4l-27.7,111c-1.4,3.1-4.5,7.6-11.5,5.9c0.2,0.4-18-4.5-18-4.5l-12.4,28.3l32.1,8l17.4,4.5l-10.2,41.1    l24.8,6.1l10.2-40.7c6.7,1.9,13.2,3.6,19.6,5.1l-9.5,40.3l24.8,6.2l10.2-41.1c42,8,73.7,4.8,87-33.3c10.7-30.7-0.6-48.3-22.8-59.9    c16-3.7,28.1-14.3,31.5-36.2L355.2,223.9z M298.7,303.1c-7.5,30.8-59.2,14.1-75.9,9.9l13.5-54.3    C253.1,263,306.7,271.2,298.7,303.1z M306.4,223.6c-7,28-49.9,13.8-63.9,10.3l12.3-49.5C268.8,187.7,313.7,194.2,306.4,223.6    L306.4,223.6z"
   id="path4"
   style="fill:#f9931a;fill-opacity:1" />
	</g>
</g></svg>
