<?xml version="1.0" encoding="UTF-8" standalone="no"?>
<svg
   xmlns:dc="http://purl.org/dc/elements/1.1/"
   xmlns:cc="http://creativecommons.org/ns#"
   xmlns:rdf="http://www.w3.org/1999/02/22-rdf-syntax-ns#"
   xmlns:svg="http://www.w3.org/2000/svg"
   xmlns="http://www.w3.org/2000/svg"
   xmlns:sodipodi="http://sodipodi.sourceforge.net/DTD/sodipodi-0.dtd"
   xmlns:inkscape="http://www.inkscape.org/namespaces/inkscape"
   version="1.1"
   id="Layer_1"
   x="0px"
   y="0px"
   viewBox="0 0 512 512"
   style="enable-background:new 0 0 512 512;"
   xml:space="preserve"
   sodipodi:docname="cib-bitcoin-white.svg"
   inkscape:version="1.0.2 (e86c870879, 2021-01-15)"><metadata
   id="metadata15"><rdf:RDF><cc:Work
       rdf:about=""><dc:format>image/svg+xml</dc:format><dc:type
         rdf:resource="http://purl.org/dc/dcmitype/StillImage" /><dc:title></dc:title></cc:Work></rdf:RDF></metadata><defs
   id="defs13">
	
	

		
	</defs><sodipodi:namedview
   pagecolor="#ffffff"
   bordercolor="#666666"
   borderopacity="1"
   objecttolerance="10"
   gridtolerance="10"
   guidetolerance="10"
   inkscape:pageopacity="0"
   inkscape:pageshadow="2"
   inkscape:window-width="2273"
   inkscape:window-height="1764"
   id="namedview11"
   showgrid="false"
   inkscape:zoom="1.96875"
   inkscape:cx="256"
   inkscape:cy="256"
   inkscape:window-x="0"
   inkscape:window-y="0"
   inkscape:window-maximized="0"
   inkscape:current-layer="Layer_1" />
<path
   d="m 476.73969,310.90794 c -30,120.6 -152.1,193.9 -272.6,163.9 -120.500005,-29.8 -193.900008,-152.2 -163.800008,-272.6 30.000003,-120.6 152.100008,-194.0000035 272.500008,-164 120.6,30.1 194,152.2 163.9,272.7 z m -119,-86.5 c 4.5,-29.8 -18.3,-45.9 -49.5,-56.8 l 10.1,-40.4 -24.7,-6.2 -9.8,39.6 c -6.5,-1.7 -13.2,-3.2 -19.9,-4.7 l 9.8,-39.9 -24.8,-6.1 -10.1,40.6 c -5.3,-1.3 -10.5,-2.5 -15.8,-3.7 l -34,-8.5 -6.6,26.5 c 0,0 18.3,4.2 17.9,4.4 10.1,2.6 11.9,9.1 11.6,14.4 l -27.7,111 c -1.4,3.1 -4.5,7.6 -11.5,5.9 0.2,0.4 -18,-4.5 -18,-4.5 l -12.4,28.3 32.1,8 17.4,4.5 -10.2,41.1 24.8,6.1 10.2,-40.7 c 6.7,1.9 13.2,3.6 19.6,5.1 l -9.5,40.3 24.8,6.2 10.2,-41.1 c 42,8 73.7,4.8 87,-33.3 10.7,-30.7 -0.6,-48.3 -22.8,-59.9 16,-3.7 28.1,-14.3 31.5,-36.2 z m -56.5,79.2 c -7.5,30.8 -59.2,14.1 -75.9,9.9 l 13.5,-54.3 c 16.8,4.3 70.4,12.5 62.4,44.4 z m 7.7,-79.5 c -7,28 -49.9,13.8 -63.9,10.3 l 12.3,-49.5 c 14,3.3 58.9,9.8 51.6,39.2 z"
   id="path4"
   style="fill:#ffffff" />
</svg>
